#!OML:ASF H:\Male1\Project 1\Capture day 1\Session 1\Male1.ASF
:FULLY-SPECIFIED
:DEGREES
738
root 22.1438 15.5506 0.645467 163.455 -83.0664 -163.022
lowerback 6.34825 1.59921 1.06708
upperback 5.44443 1.98206 -3.94351
thorax 2.25473 1.00339 -4.77303
lowerneck -9.81177 2.45093 9.3923
upperneck 8.98 2.02209 -1.17339
head 4.41405 1.23061 -1.74024
rclavicle 2.0276e-014 2.70347e-014
rhumerus -28.7409 38.3853 -110.265
rradius 117.054
rwrist -2.24591
rhand -18.4061 27.6412
rfingers 7.12502
rthumb 7.87843 -2.19204
lclavicle 2.0276e-014 2.70347e-014
lhumerus -31.5252 -23.0501 94.71
lradius 132.416
lwrist 10.6444
lhand -3.29813 -15.6155
lfingers 7.12502
lthumb 22.4278 13.1024
rfemur -2.90263 23.371 21.2292
rtibia 15.1865
rfoot -32.9177 -36.4932
rtoes -6.67451
lfemur -4.36311 -22.1502 -15.553
ltibia 21.9508
lfoot -27.8224 31.1917
ltoes 6.0535
739
root 22.1526 15.5504 0.644449 164.239 -83.023 -163.957
lowerback 6.22246 1.57005 0.97984
upperback 5.5011 1.94279 -3.81071
thorax 2.37078 0.981108 -4.57855
lowerneck -9.8615 2.38087 9.22795
upperneck 9.04906 1.95025 -1.20095
head 4.43775 1.19041 -1.7273
rclavicle -2.18663e-014 3.33958e-014
rhumerus -28.5876 38.1112 -109.957
rradius 117.386
rwrist -2.37969
rhand -18.1124 27.8693
rfingers 7.12502
rthumb 8.16184 -1.95307
lclavicle -2.18663e-014 3.33958e-014
lhumerus -30.3193 -23.1019 94.6699
lradius 132.012
lwrist 10.3626
lhand -3.10983 -15.8387
lfingers 7.12502
lthumb 22.6086 12.8572
rfemur -2.85179 23.2105 21.1548
rtibia 15.2654
rfoot -32.6631 -36.4431
rtoes -7.31807
lfemur -4.21877 -22.2566 -15.684
ltibia 21.9054
lfoot -27.9983 31.1728
ltoes 6.96831
740
root 22.1596 15.5489 0.644329 163.542 -83.0108 -163.388
lowerback 6.11193 1.51506 1.14927
upperback 5.5093 1.88155 -3.69637
thorax 2.43703 0.956741 -4.54938
lowerneck -9.67543 2.18855 8.90838
upperneck 8.92233 1.73294 -0.960802
head 4.35136 1.0831 -1.61859
rclavicle -1.07344e-014 -3.02153e-014
rhumerus -28.648 37.8081 -109.833
rradius 117.739
rwrist -2.62082
rhand -18.1051 27.7793
rfingers 7.12502
rthumb 8.16894 -2.0428
lclavicle -1.07344e-014 -3.02153e-014
lhumerus -29.4567 -23.3242 94.703
lradius 131.726
lwrist 10.152
lhand -3.06788 -15.637
lfingers 7.12502
lthumb 22.6488 13.0541
rfemur -2.80573 23.0425 21.2675
rtibia 15.3838
rfoot -32.4866 -36.427
rtoes -7.85975
lfemur -4.09562 -22.3846 -15.6263
ltibia 21.8452
lfoot -28.0325 31.194
ltoes 7.64395
741
root 22.167 15.5454 0.641497 162.828 -83.0253 -162.759
lowerback 6.0301 1.49019 1.29184
upperback 5.46595 1.85911 -3.60392
thorax 2.43681 0.950431 -4.53061
lowerneck -9.44306 1.84755 8.52199
upperneck 8.79527 1.3152 -0.598497
head 4.2482 0.880904 -1.47466
rclavicle 2.66371e-014 -7.79236e-014
rhumerus -28.6908 37.3752 -109.665
rradius 117.991
rwrist -2.88852
rhand -18.0494 27.9648
rfingers 7.12502
rthumb 8.22265 -1.85523
lclavicle 2.66371e-014 -7.79236e-014
lhumerus -28.7995 -23.8005 94.795
lradius 131.461
lwrist 10.1389
lhand -3.4469 -15.5416
lfingers 7.12502
lthumb 22.285 13.1934
rfemur -2.77149 22.9887 21.3872
rtibia 15.4704
rfoot -32.5765 -36.3896
rtoes -7.82773
lfemur -4.01044 -22.3019 -15.5498
ltibia 21.8004
lfoot -27.9125 31.1089
ltoes 7.27263
742
root 22.1749 15.5419 0.637437 163.183 -83.1124 -163.164
lowerback 5.96469 1.45622 1.21233
upperback 5.42413 1.81402 -3.52803
thorax 2.41925 0.92472 -4.40298
lowerneck -9.43778 1.49787 8.02081
upperneck 8.75369 0.864451 -0.117647
head 4.20967 0.667124 -1.27576
rclavicle -3.33958e-014 -6.36111e-015
rhumerus -28.7114 37.0372 -109.463
rradius 118.078
rwrist -2.7879
rhand -18.5049 28.2506
rfingers 7.12502
rthumb 7.78302 -1.58617
lclavicle -3.33958e-014 -6.36111e-015
lhumerus -27.9996 -24.29 94.7165
lradius 131.05
lwrist 10.1678
lhand -3.63678 -15.776
lfingers 7.12502
lthumb 22.1027 12.9807
rfemur -2.74579 22.9803 21.3386
rtibia 15.4965
rfoot -32.8385 -36.3463
rtoes -7.6313
lfemur -3.99773 -22.3074 -15.6108
ltibia 21.792
lfoot -27.9305 31.0175
ltoes 7.11165
743
root 22.1811 15.5401 0.634662 162.561 -83.1613 -162.561
lowerback 5.87911 1.38838 1.24994
upperback 5.38769 1.72928 -3.43481
thorax 2.41904 0.883368 -4.32188
lowerneck -9.76414 1.15868 7.59183
upperneck 8.93436 0.381437 0.360147
head 4.2981 0.446342 -1.09028
rclavicle 3.97569e-015 2.54444e-014
rhumerus -28.7275 36.8227 -109.361
rradius 118.073
rwrist -2.60519
rhand -19.275 28.1835
rfingers 7.12502
rthumb 7.0397 -1.67941
lclavicle 3.97569e-015 2.54444e-014
lhumerus -27.1283 -24.7463 94.4194
lradius 130.601
lwrist 10.1573
lhand -3.63083 -15.922
lfingers 7.12502
lthumb 22.1084 12.834
rfemur -2.77039 22.8448 21.4107
rtibia 15.5751
rfoot -32.8918 -36.3074
rtoes -7.89524
lfemur -3.97614 -22.4345 -15.5435
ltibia 21.751
lfoot -27.8884 31.168
ltoes 6.51939
744
root 22.1845 15.5408 0.633066 162.173 -83.1899 -162.224
lowerback 5.69728 1.33477 1.23928
upperback 5.41007 1.66125 -3.33522
thorax 2.53353 0.850109 -4.20493
lowerneck -9.66441 0.452197 6.71545
upperneck 9.01113 -0.530412 1.19129
head 4.27708 0.0145851 -0.75367
rclavicle -3.18055e-015 -2.06736e-014
rhumerus -28.6468 36.6321 -109.174
rradius 118.042
rwrist -2.83992
rhand -19.5252 28.0342
rfingers 7.12502
rthumb 6.79818 -1.83669
lclavicle -3.18055e-015 -2.06736e-014
lhumerus -26.3116 -25.2378 94.159
lradius 130.156
lwrist 10.1822
lhand -3.61768 -15.6978
lfingers 7.12502
lthumb 22.1211 13.0567
rfemur -2.8038 22.6056 21.4481
rtibia 15.7155
rfoot -32.7719 -36.1855
rtoes -8.25642
lfemur -3.87793 -22.53 -15.5379
ltibia 21.665
lfoot -27.5883 31.5638
ltoes 4.83779
745
root 22.1883 15.5398 0.631109 163.058 -83.2192 -163.255
lowerback 5.55575 1.30594 1.04324
upperback 5.4761 1.61651 -3.26316
thorax 2.66815 0.821683 -4.01373
lowerneck -9.96094 0.0403864 6.40661
upperneck 9.12829 -1.08815 1.39349
head 4.34934 -0.253858 -0.678809
rclavicle -1.82882e-014 3.18055e-015
rhumerus -28.6346 36.4065 -108.949
rradius 118.049
rwrist -3.14653
rhand -19.3155 28.0333
rfingers 7.12502
rthumb 7.00056 -1.83095
lclavicle -1.82882e-014 3.18055e-015
lhumerus -25.7246 -25.7297 94.0087
lradius 129.732
lwrist 10.2376
lhand -3.51576 -15.3868
lfingers 7.12502
lthumb 22.2189 13.3561
rfemur -2.74592 22.437 21.3509
rtibia 15.8428
rfoot -32.6507 -36.0498
rtoes -8.44032
lfemur -3.69147 -22.456 -15.7203
ltibia 21.5817
lfoot -27.3548 31.6821
ltoes 3.93951
746
root 22.192 15.5379 0.628674 164.086 -83.2284 -164.43
lowerback 5.5686 1.28728 0.918341
upperback 5.45161 1.58711 -3.28366
thorax 2.62965 0.802342 -3.96403
lowerneck -10.1808 -0.422656 6.29555
upperneck 9.30087 -1.72053 1.4324
head 4.42428 -0.560438 -0.692088
rclavicle 3.18055e-015 2.06736e-014
rhumerus -28.8276 36.0571 -108.962
rradius 118.053
rwrist -3.19433
rhand -19.3341 28.2591
rfingers 7.12502
rthumb 6.98268 -1.60575
lclavicle 3.18055e-015 2.06736e-014
lhumerus -25.3781 -26.4632 93.759
lradius 129.437
lwrist 10.4077
lhand -3.78925 -15.0229
lfingers 7.12502
lthumb 21.9563 13.751
rfemur -2.67735 22.3481 21.2666
rtibia 15.9831
rfoot -32.5154 -35.99
rtoes -8.69413
lfemur -3.51219 -22.3238 -15.8967
ltibia 21.4961
lfoot -27.2912 31.5339
ltoes 3.90665
